<svg xmlns="http://www.w3.org/2000/svg" xmlns:xlink="http://www.w3.org/1999/xlink" width="500" zoomAndPan="magnify" viewBox="0 0 375 374.999991" height="500" preserveAspectRatio="xMidYMid meet" version="1.0"><defs><clipPath id="15612267e0"><path d="M 21.957031 21.957031 L 352.707031 21.957031 L 352.707031 352.707031 L 21.957031 352.707031 Z M 21.957031 21.957031 " clip-rule="nonzero"/></clipPath></defs><rect x="-37.5" width="450" fill="#ffffff" y="-37.499999" height="449.999989" fill-opacity="1"/><rect x="-37.5" width="450" fill="#ffffff" y="-37.499999" height="449.999989" fill-opacity="1"/><g clip-path="url(#15612267e0)"><path fill="#131111" d="M 161.933594 335.84375 C 166.609375 343.328125 161.226562 353.035156 152.402344 353.035156 L 33.195312 353.035156 C 26.992188 353.035156 21.957031 348 21.957031 341.792969 L 21.957031 151.054688 C 21.957031 139.761719 36.75 135.523438 42.730469 145.089844 Z M 341.792969 21.957031 L 67.386719 21.957031 C 58.558594 21.957031 53.179688 31.664062 57.851562 39.144531 L 165.28125 211.039062 C 170.3125 219.105469 182.46875 217.65625 185.46875 208.640625 L 227.710938 81.9375 C 229.242188 77.351562 233.535156 74.246094 238.363281 74.246094 L 287.378906 74.246094 C 295.054688 74.246094 300.464844 81.765625 298.035156 89.039062 L 214.96875 338.242188 C 212.539062 345.515625 217.953125 353.035156 225.625 353.035156 L 341.777344 353.035156 C 347.984375 353.035156 353.015625 348 353.015625 341.792969 L 353.015625 33.195312 C 353.035156 26.992188 348 21.957031 341.792969 21.957031 Z M 341.792969 21.957031 " fill-opacity="1" fill-rule="nonzero"/></g></svg>