<svg xmlns="http://www.w3.org/2000/svg" xmlns:xlink="http://www.w3.org/1999/xlink" width="500" zoomAndPan="magnify" viewBox="0 0 375 374.999991" height="500" preserveAspectRatio="xMidYMid meet" version="1.0"><defs><clipPath id="2f38e14a4b"><path d="M 19.929688 19.929688 L 355.070312 19.929688 L 355.070312 355.070312 L 19.929688 355.070312 Z M 19.929688 19.929688 " clip-rule="nonzero"/></clipPath><clipPath id="6c2097789f"><path d="M 37.179688 19.929688 L 337.820312 19.929688 C 342.394531 19.929688 346.78125 21.746094 350.015625 24.984375 C 353.253906 28.21875 355.070312 32.605469 355.070312 37.179688 L 355.070312 337.820312 C 355.070312 342.394531 353.253906 346.78125 350.015625 350.015625 C 346.78125 353.253906 342.394531 355.070312 337.820312 355.070312 L 37.179688 355.070312 C 32.605469 355.070312 28.21875 353.253906 24.984375 350.015625 C 21.746094 346.78125 19.929688 342.394531 19.929688 337.820312 L 19.929688 37.179688 C 19.929688 32.605469 21.746094 28.21875 24.984375 24.984375 C 28.21875 21.746094 32.605469 19.929688 37.179688 19.929688 Z M 37.179688 19.929688 " clip-rule="nonzero"/></clipPath><clipPath id="6e9acafe46"><path d="M 0.929688 0.929688 L 336.070312 0.929688 L 336.070312 336.070312 L 0.929688 336.070312 Z M 0.929688 0.929688 " clip-rule="nonzero"/></clipPath><clipPath id="9a37fb6883"><path d="M 18.179688 0.929688 L 318.820312 0.929688 C 323.394531 0.929688 327.78125 2.746094 331.015625 5.984375 C 334.253906 9.21875 336.070312 13.605469 336.070312 18.179688 L 336.070312 318.820312 C 336.070312 323.394531 334.253906 327.78125 331.015625 331.015625 C 327.78125 334.253906 323.394531 336.070312 318.820312 336.070312 L 18.179688 336.070312 C 13.605469 336.070312 9.21875 334.253906 5.984375 331.015625 C 2.746094 327.78125 0.929688 323.394531 0.929688 318.820312 L 0.929688 18.179688 C 0.929688 13.605469 2.746094 9.21875 5.984375 5.984375 C 9.21875 2.746094 13.605469 0.929688 18.179688 0.929688 Z M 18.179688 0.929688 " clip-rule="nonzero"/></clipPath><clipPath id="cdc27419d6"><rect x="0" width="337" y="0" height="337"/></clipPath><clipPath id="bd29372477"><path d="M 55.523438 55.523438 L 319.523438 55.523438 L 319.523438 319.523438 L 55.523438 319.523438 Z M 55.523438 55.523438 " clip-rule="nonzero"/></clipPath></defs><g clip-path="url(#2f38e14a4b)"><g clip-path="url(#6c2097789f)"><g transform="matrix(1, 0, 0, 1, 19, 19)"><g clip-path="url(#cdc27419d6)"><g clip-path="url(#6e9acafe46)"><g clip-path="url(#9a37fb6883)"><path fill="#ffffff" d="M 0.929688 0.929688 L 336.070312 0.929688 L 336.070312 336.070312 L 0.929688 336.070312 Z M 0.929688 0.929688 " fill-opacity="1" fill-rule="nonzero"/></g></g></g></g></g></g><g clip-path="url(#bd29372477)"><path fill="#131111" d="M 167.121094 305.769531 C 170.847656 311.738281 166.558594 319.476562 159.519531 319.476562 L 64.484375 319.476562 C 59.535156 319.476562 55.523438 315.460938 55.523438 310.511719 L 55.523438 158.449219 C 55.523438 149.445312 67.316406 146.0625 72.085938 153.691406 Z M 310.511719 55.523438 L 91.742188 55.523438 C 84.703125 55.523438 80.414062 63.261719 84.140625 69.226562 L 169.789062 206.269531 C 173.800781 212.699219 183.492188 211.546875 185.882812 204.359375 L 219.558594 103.34375 C 220.785156 99.6875 224.207031 97.210938 228.054688 97.210938 L 267.132812 97.210938 C 273.25 97.210938 277.566406 103.207031 275.628906 109.003906 L 209.402344 307.683594 C 207.464844 313.484375 211.78125 319.476562 217.898438 319.476562 L 310.5 319.476562 C 315.449219 319.476562 319.460938 315.460938 319.460938 310.511719 L 319.460938 64.484375 C 319.476562 59.535156 315.460938 55.523438 310.511719 55.523438 Z M 310.511719 55.523438 " fill-opacity="1" fill-rule="nonzero"/></g></svg>