<svg xmlns="http://www.w3.org/2000/svg" xmlns:xlink="http://www.w3.org/1999/xlink" width="900" zoomAndPan="magnify" viewBox="0 0 675 149.999998" height="200" preserveAspectRatio="xMidYMid meet" version="1.0"><defs><g/></defs><g fill="#000000" fill-opacity="1"><g transform="translate(45.595178, 121.499995)"><g><path d="M 50.921875 0 L 30.46875 0 L 1.53125 -85.671875 L 19.515625 -85.671875 L 40.3125 -21.796875 L 41.78125 -21.796875 L 62.28125 -85.671875 L 79.8125 -85.671875 Z M 50.921875 0 "/></g></g></g><g fill="#000000" fill-opacity="1"><g transform="translate(113.487055, 121.499995)"><g><path d="M 82.203125 0 L 64.390625 0 L 57.953125 -19.75 L 25.140625 -19.75 L 18.6875 0 L 1.296875 0 L 30.875 -85.671875 L 52.625 -85.671875 Z M 40.71875 -67.796875 L 29.703125 -33.984375 L 53.265625 -33.984375 L 42.1875 -67.796875 Z M 40.71875 -67.796875 "/></g></g></g><g fill="#000000" fill-opacity="1"><g transform="translate(188.703149, 121.499995)"><g><path d="M 27.546875 0 L 11.140625 0 L 11.140625 -85.671875 L 30.53125 -85.671875 L 64.921875 -30.46875 L 66.453125 -30.703125 L 66.453125 -85.671875 L 82.734375 -85.671875 L 82.734375 0 L 65.390625 0 L 29 -58.953125 L 27.546875 -58.71875 Z M 27.546875 0 "/></g></g></g><g fill="#000000" fill-opacity="1"><g transform="translate(274.348919, 121.499995)"><g><path d="M 18.8125 0 L 1.46875 0 L 26.84375 -44.0625 L 2.703125 -85.671875 L 20.6875 -85.671875 L 38.4375 -54.96875 L 39.90625 -54.96875 L 57.953125 -85.671875 L 75.0625 -85.671875 L 50.921875 -44.0625 L 76.296875 0 L 58.359375 0 L 39.3125 -33.046875 L 37.859375 -33.046875 Z M 18.8125 0 "/></g></g></g><g fill="#000000" fill-opacity="1"><g transform="translate(344.615493, 121.499995)"><g><path d="M 47.34375 1.234375 C 39.84375 1.234375 33.160156 -0.484375 27.296875 -3.921875 C 21.441406 -7.359375 16.851562 -12.390625 13.53125 -19.015625 C 10.21875 -25.640625 8.5625 -33.578125 8.5625 -42.828125 C 8.5625 -52.085938 10.21875 -60.023438 13.53125 -66.640625 C 16.851562 -73.265625 21.441406 -78.296875 27.296875 -81.734375 C 33.160156 -85.171875 39.84375 -86.890625 47.34375 -86.890625 C 55.351562 -86.890625 62.015625 -85.375 67.328125 -82.34375 C 72.640625 -79.320312 76.46875 -74.765625 78.8125 -68.671875 L 72.359375 -64.390625 L 70.90625 -64.390625 C 68.5625 -69.273438 65.515625 -72.742188 61.765625 -74.796875 C 58.015625 -76.847656 53.207031 -77.875 47.34375 -77.875 C 41.957031 -77.875 37.171875 -76.671875 32.984375 -74.265625 C 28.804688 -71.867188 25.488281 -68.0625 23.03125 -62.84375 C 20.570312 -57.625 19.34375 -50.953125 19.34375 -42.828125 C 19.34375 -34.703125 20.570312 -28.039062 23.03125 -22.84375 C 25.488281 -17.65625 28.804688 -13.859375 32.984375 -11.453125 C 37.171875 -9.054688 41.957031 -7.859375 47.34375 -7.859375 C 53.550781 -7.859375 58.628906 -9.253906 62.578125 -12.046875 C 66.523438 -14.835938 69.457031 -19.359375 71.375 -25.609375 L 72.828125 -25.609375 L 79.578125 -22.265625 C 77.546875 -14.691406 73.785156 -8.878906 68.296875 -4.828125 C 62.804688 -0.785156 55.820312 1.234375 47.34375 1.234375 Z M 47.34375 1.234375 "/></g></g></g><g fill="#000000" fill-opacity="1"><g transform="translate(422.638926, 121.499995)"><g><path d="M 67.5625 -50.921875 L 67.5625 -85.671875 L 77.578125 -85.671875 L 77.578125 0 L 67.5625 0 L 67.5625 -42.359375 L 23.03125 -42.359375 L 23.03125 0 L 12.953125 0 L 12.953125 -85.671875 L 23.03125 -85.671875 L 23.03125 -50.921875 Z M 67.5625 -50.921875 "/></g></g></g><g fill="#000000" fill-opacity="1"><g transform="translate(507.224859, 121.499995)"><g><path d="M 77.109375 0 L 66.328125 0 L 58.421875 -23.5 L 21.921875 -23.5 L 13.953125 0 L 3.40625 0 L 33.28125 -85.671875 L 47.234375 -85.671875 Z M 39.4375 -75.296875 L 24.734375 -31.9375 L 55.546875 -31.9375 L 40.90625 -75.296875 Z M 39.4375 -75.296875 "/></g></g></g><g fill="#000000" fill-opacity="1"><g transform="translate(574.11548, 121.499995)"><g><path d="M 66.859375 -85.671875 L 66.859375 -77.109375 L 40.015625 -77.109375 L 40.015625 0 L 30 0 L 30 -77.109375 L 3.171875 -77.109375 L 3.171875 -85.671875 Z M 66.859375 -85.671875 "/></g></g></g></svg>